<svg width="717" height="508" viewBox="0 0 717 508" fill="none" xmlns="http://www.w3.org/2000/svg">
<path d="M704.853 179.176C701.952 178.832 689.954 180.061 686.906 176.226C685.283 174.111 690.987 170.718 695.904 167.621C700.132 165.015 703.82 162.9 702.198 161.966C698.657 160.147 683.759 165.359 676.137 165.801C664.632 166.441 648.652 161.032 631 149.28C613.446 137.48 589.697 112.993 551.541 127.252C538.019 132.317 536.789 139.053 532.413 128.481C508.222 69.9198 428.271 0.147509 230.657 0.147509L9.58792 0L0 27.4861H6.44127C117.664 27.4861 321.72 26.4535 358.597 42.8271C399.113 60.8234 409.931 71.7391 395.376 103.405C384.313 127.449 365.53 97.4551 339.863 97.4059C339.863 97.4059 325.555 92.9806 299.741 104.044C285.531 110.141 278.254 104.831 270.288 99.5694C263.699 95.2424 256.717 90.8171 245.015 92.7839C219.053 97.1109 254.996 100.356 259.569 107.289C264.141 114.32 238.032 111.862 224.264 116.582C210.497 121.303 219.79 127.498 234.295 127.498C248.8 127.498 255.881 137.529 236.41 142.692C216.84 147.854 230.165 151.985 245.358 149.87C260.503 147.854 264.289 150.165 263.896 165.703C263.601 181.241 275.893 170.473 278.057 159.999C280.122 149.477 290.054 168.211 298.216 170.62C306.379 173.177 295.119 155.181 296.053 148.789C296.889 142.298 327.571 137.184 337.552 144.757C347.534 152.329 369.562 160.786 359.728 179.766C355.844 187.24 361.498 193.091 320.146 218.364C278.794 243.638 245.211 218.856 216.594 209.956C187.977 201.155 141.708 206.563 122.384 217.823C112.157 223.773 104.781 233.312 95.6848 240.392L345.075 240.294C345.075 240.294 476.556 247.178 476.556 134.972C476.556 82.0157 433.09 49.5634 433.09 49.5634C433.09 49.5634 498.387 79.803 498.387 143.822C498.387 207.842 457.97 267.879 342.224 267.879H38.1068C26.2568 274.123 13.6692 287.596 9.44057 299.003C9.44057 299.003 0.835699 333.521 20.7004 351.959C66.0352 394 141.61 391.541 198.106 389.919C254.504 388.394 314.787 345.961 391.935 360.957C460.134 374.184 517.663 403.145 532.659 425.616C541.559 439.039 521.694 451.135 507.041 459.888C496.962 465.985 489.389 470.459 495.437 472.573C510.238 477.982 528.381 463.084 537.723 464.903C547.164 466.771 520.023 509.648 533.741 507.042C547.41 504.387 565.21 473.016 573.716 466.673C583.747 459.101 612.708 493.717 624.853 489.291C630.705 487.226 625.542 476.409 619.887 465.886C613.79 454.577 607.152 443.563 613.052 444.202C624.509 445.53 654.552 445.677 656.765 441.695C659.026 437.761 629.967 422.912 620.428 420.552C614.331 419.027 625.886 416.077 637.785 412.979C649.389 409.931 661.239 406.636 657.6 404.227C653.421 401.523 634.195 399.507 622.788 400.49C603.169 402.064 586.501 405.063 576.912 380.576C570.619 364.498 565.505 355.745 560.785 351.713C545.296 338.733 519.531 333.029 526.218 320.835C535.511 303.969 558.719 260.552 551.884 202.089C547.656 176.865 601.694 179.422 601.694 179.422C601.694 179.422 620.87 176.275 638.227 197.27C642.308 202.187 625.837 215.414 623.526 227.166C622.198 233.853 628.639 228.887 635.72 223.33C641.128 219.151 646.931 214.726 650.127 214.922C655.388 217.332 655.191 233.558 663.402 236.213C669.598 229.526 664.828 206.76 672.45 211.235C676.383 212.661 695.707 224.215 700.378 219.003C701.706 216.102 692.511 200.171 687.447 194.615C685.086 192.107 699.542 187.485 705.738 187.092C724.078 186.109 714.785 180.159 704.853 179.028" fill="#0C5D90"/>
</svg>
