<svg width="50" height="50" viewBox="0 0 50 50" fill="none" xmlns="http://www.w3.org/2000/svg">
<rect width="50" height="50" fill="#166394"/>
<path d="M24.9889 43.946C20.1604 43.9542 15.5122 42.1119 12.0004 38.7979C11.9713 38.772 11.9476 38.7405 11.9309 38.7053C11.9141 38.6701 11.9046 38.6319 11.9029 38.5929C11.9012 38.554 11.9073 38.5151 11.9208 38.4785C11.9344 38.442 11.9552 38.4085 11.9819 38.3801C12.0087 38.3517 12.0409 38.329 12.0765 38.3133C12.1122 38.2976 12.1507 38.2891 12.1897 38.2885C12.2287 38.2879 12.2674 38.2952 12.3035 38.3098C12.3397 38.3244 12.3725 38.3462 12.4001 38.3737C15.4776 41.2717 19.4605 43.0197 23.6769 43.3228C27.8933 43.6259 32.0852 42.4656 35.5456 40.0375C39.006 37.6095 41.5231 34.0623 42.6724 29.9943C43.8218 25.9263 43.533 21.5864 41.8547 17.7065C41.8248 17.6357 41.8241 17.5558 41.8527 17.4845C41.8814 17.4131 41.9371 17.3559 42.0077 17.3254C42.0783 17.2949 42.1581 17.2936 42.2297 17.3216C42.3013 17.3497 42.3589 17.405 42.39 17.4753C43.6388 20.3589 44.1506 23.5079 43.8794 26.6386C43.6082 29.7693 42.5624 32.7834 40.8363 35.4093C39.1102 38.0352 36.758 40.1904 33.9916 41.6809C31.2251 43.1714 28.1314 43.9503 24.9889 43.9475V43.946Z" fill="white"/>
<path d="M7.69088 32.2886C7.63277 32.2886 7.576 32.2712 7.52785 32.2386C7.47969 32.2061 7.44235 32.16 7.42062 32.1061C6.07118 28.7442 5.71009 25.0668 6.37982 21.5067C7.04955 17.9465 8.72224 14.6517 11.2011 12.01C14.6474 8.35177 19.4059 6.21244 24.4296 6.06263C29.4533 5.91282 34.3307 7.7648 37.9889 11.2112C38.0426 11.2648 38.0733 11.3372 38.0745 11.413C38.0756 11.4889 38.0472 11.5622 37.9951 11.6174C37.9431 11.6726 37.8716 11.7054 37.7958 11.7087C37.72 11.7121 37.6459 11.6858 37.5892 11.6354C35.8336 9.9814 33.7694 8.68943 31.5144 7.83323C29.2595 6.97703 26.858 6.57336 24.447 6.64526C22.0361 6.71716 19.6629 7.26324 17.463 8.2523C15.2631 9.24137 13.2795 10.6541 11.6256 12.4097C9.22289 14.9702 7.6016 18.1637 6.95248 21.6144C6.30335 25.0651 6.6534 28.6295 7.96143 31.888C7.99021 31.9597 7.98937 32.0399 7.95909 32.1109C7.9288 32.182 7.87156 32.2381 7.79992 32.267C7.76525 32.281 7.72826 32.2883 7.69088 32.2886Z" fill="white"/>
<path d="M37.8892 11.8093H37.8726L34.4274 11.6122C34.3502 11.6078 34.278 11.5729 34.2266 11.5152C34.1751 11.4575 34.1487 11.3818 34.1531 11.3046C34.1594 11.2282 34.1949 11.1571 34.2521 11.1061C34.3094 11.0551 34.384 11.0279 34.4606 11.0303L37.5592 11.2072L37.1976 8.12475C37.1887 8.04793 37.2106 7.9707 37.2586 7.91003C37.3065 7.84937 37.3767 7.81025 37.4535 7.80129C37.5303 7.79232 37.6075 7.81423 37.6682 7.86221C37.7289 7.91018 37.768 7.98029 37.7769 8.05711L38.1778 11.4836C38.1826 11.5245 38.1787 11.5659 38.1664 11.6052C38.154 11.6445 38.1335 11.6807 38.1062 11.7114C38.0788 11.7422 38.0453 11.7668 38.0077 11.7837C37.9702 11.8005 37.9295 11.8093 37.8883 11.8093H37.8892Z" fill="white"/>
<path d="M12.5317 42.4634C12.4603 42.4633 12.3914 42.437 12.3381 42.3895C12.2848 42.342 12.2508 42.2766 12.2425 42.2057L11.8107 38.5253C11.8059 38.4831 11.8103 38.4404 11.8237 38.4001C11.8371 38.3598 11.8592 38.3229 11.8883 38.292C11.9172 38.2608 11.9528 38.2364 11.9923 38.2206C12.0318 38.2049 12.0744 38.1981 12.1169 38.2008L15.8165 38.411C15.8936 38.4154 15.9658 38.4503 16.0173 38.5079C16.0687 38.5655 16.0952 38.6412 16.0909 38.7183C16.085 38.7949 16.0497 38.8663 15.9923 38.9175C15.935 38.9687 15.8601 38.9957 15.7833 38.9929L12.4306 38.8014L12.8218 42.1378C12.8308 42.2146 12.8088 42.2917 12.7609 42.3524C12.713 42.413 12.6429 42.4521 12.5661 42.4611C12.5547 42.4626 12.5432 42.4634 12.5317 42.4634Z" fill="white"/>
<path d="M38.8774 31.6922H11.1126C11.0353 31.6922 10.9611 31.6615 10.9064 31.6068C10.8518 31.5522 10.821 31.478 10.821 31.4007C10.821 31.3234 10.8518 31.2492 10.9064 31.1945C10.9611 31.1398 11.0353 31.1091 11.1126 31.1091H38.8774C38.9547 31.1091 39.0289 31.1398 39.0836 31.1945C39.1383 31.2492 39.169 31.3234 39.169 31.4007C39.169 31.478 39.1383 31.5522 39.0836 31.6068C39.0289 31.6615 38.9547 31.6922 38.8774 31.6922Z" fill="white"/>
<path d="M36.857 31.6922H33.4048C33.3275 31.6922 33.2533 31.6615 33.1987 31.6069C33.144 31.5522 33.1133 31.478 33.1133 31.4007V14.1402C33.1133 14.0629 33.144 13.9887 33.1987 13.934C33.2533 13.8793 33.3275 13.8486 33.4048 13.8486H36.857C36.9343 13.8486 37.0085 13.8793 37.0631 13.934C37.1178 13.9887 37.1485 14.0629 37.1485 14.1402V31.3995C37.1487 31.4379 37.1413 31.476 37.1267 31.5115C37.1121 31.547 37.0906 31.5792 37.0636 31.6064C37.0365 31.6336 37.0043 31.6552 36.9688 31.6699C36.9334 31.6847 36.8954 31.6923 36.857 31.6922ZM33.6964 31.1092H36.5654V14.4317H33.6964V31.1092Z" fill="white"/>
<path d="M16.5848 31.6922H13.1326C13.0553 31.6922 12.9811 31.6615 12.9265 31.6068C12.8718 31.5521 12.8411 31.478 12.8411 31.4006V19.8689C12.8411 19.7916 12.8718 19.7175 12.9265 19.6628C12.9811 19.6081 13.0553 19.5774 13.1326 19.5774H16.5848C16.6621 19.5774 16.7362 19.6081 16.7909 19.6628C16.8456 19.7175 16.8763 19.7916 16.8763 19.8689V31.4006C16.8763 31.478 16.8456 31.5521 16.7909 31.6068C16.7362 31.6615 16.6621 31.6922 16.5848 31.6922ZM13.4242 31.1091H16.2932V20.1605H13.4242V31.1091Z" fill="white"/>
<path d="M30.0997 31.6924H26.6475C26.5702 31.6924 26.496 31.6617 26.4413 31.607C26.3867 31.5523 26.356 31.4782 26.356 31.4008V20.7508C26.356 20.6734 26.3867 20.5993 26.4413 20.5446C26.496 20.4899 26.5702 20.4592 26.6475 20.4592H30.0997C30.177 20.4592 30.2511 20.4899 30.3058 20.5446C30.3605 20.5993 30.3912 20.6734 30.3912 20.7508V31.4008C30.3912 31.4782 30.3605 31.5523 30.3058 31.607C30.2511 31.6617 30.177 31.6924 30.0997 31.6924ZM26.939 31.1093H29.8081V21.0423H26.939V31.1093Z" fill="white"/>
<path d="M23.3421 31.6922H19.8899C19.8126 31.6922 19.7385 31.6615 19.6838 31.6068C19.6291 31.5522 19.5984 31.478 19.5984 31.4007V15.7559C19.5984 15.6786 19.6291 15.6044 19.6838 15.5497C19.7385 15.4951 19.8126 15.4644 19.8899 15.4644H23.3421C23.4194 15.4644 23.4936 15.4951 23.5482 15.5497C23.6029 15.6044 23.6336 15.6786 23.6336 15.7559V31.4007C23.6336 31.478 23.6029 31.5522 23.5482 31.6068C23.4936 31.6615 23.4194 31.6922 23.3421 31.6922ZM20.1815 31.1092H23.0506V16.0474H20.1815V31.1092Z" fill="white"/>
</svg>
