<svg width="50" height="50" viewBox="0 0 50 50" fill="none" xmlns="http://www.w3.org/2000/svg">
<rect width="50" height="50" fill="#166394"/>
<path d="M25.0001 42.5954C23.475 42.5938 22.0129 41.9872 20.9344 40.9088C19.856 39.8304 19.2495 38.3682 19.2478 36.8431V22.0278C19.2478 21.956 19.2763 21.8871 19.3271 21.8364C19.3779 21.7856 19.4467 21.7571 19.5185 21.7571C19.7649 21.7609 20.0075 21.8183 20.2296 21.9252C20.4516 22.0322 20.6477 22.1861 20.8043 22.3764C21.0666 22.6355 21.2737 22.8399 21.7109 22.8399C21.8872 22.836 22.0604 22.7923 22.2175 22.712C22.3746 22.6318 22.5115 22.5171 22.618 22.3764C22.7721 22.1831 22.9679 22.0269 23.1906 21.9196C23.4134 21.8123 23.6575 21.7566 23.9048 21.7566C24.152 21.7566 24.3961 21.8123 24.6189 21.9196C24.8417 22.0269 25.0374 22.1831 25.1915 22.3764C25.2952 22.5201 25.4315 22.637 25.5892 22.7176C25.7469 22.7982 25.9216 22.8402 26.0987 22.8401C26.2758 22.8399 26.4504 22.7977 26.608 22.7169C26.7656 22.636 26.9018 22.5189 27.0052 22.3751C27.1594 22.1821 27.355 22.0263 27.5776 21.9192C27.8002 21.8122 28.044 21.7566 28.291 21.7566C28.538 21.7566 28.7818 21.8122 29.0044 21.9192C29.227 22.0263 29.4227 22.1821 29.5768 22.3751C29.8389 22.6341 30.0457 22.8385 30.4829 22.8385C30.5547 22.8385 30.6235 22.867 30.6743 22.9178C30.725 22.9686 30.7536 23.0374 30.7536 23.1092V36.8417C30.7522 38.3672 30.1456 39.8299 29.0669 40.9086C27.9883 41.9873 26.5256 42.594 25.0001 42.5954ZM19.7892 22.3296V36.8431C19.7892 38.2251 20.3382 39.5505 21.3154 40.5278C22.2927 41.505 23.6181 42.054 25.0001 42.054C26.3822 42.054 27.7076 41.505 28.6848 40.5278C29.6621 39.5505 30.2111 38.2251 30.2111 36.8431V23.3601C29.8152 23.2801 29.4577 23.0693 29.196 22.7616C29.0923 22.6183 28.9561 22.5017 28.7986 22.4212C28.6411 22.3408 28.4668 22.2988 28.2899 22.2988C28.1131 22.2988 27.9387 22.3408 27.7812 22.4212C27.6237 22.5017 27.4876 22.6183 27.3839 22.7616C27.2298 22.955 27.0341 23.1111 26.8114 23.2184C26.5886 23.3257 26.3445 23.3815 26.0973 23.3815C25.85 23.3815 25.606 23.3257 25.3832 23.2184C25.1605 23.1111 24.9648 22.955 24.8107 22.7616C24.7071 22.6182 24.571 22.5014 24.4134 22.4208C24.2559 22.3403 24.0815 22.2982 23.9046 22.2982C23.7277 22.2982 23.5533 22.3403 23.3958 22.4208C23.2383 22.5014 23.1022 22.6182 22.9986 22.7616C22.8445 22.955 22.6487 23.1111 22.426 23.2184C22.2032 23.3257 21.9591 23.3815 21.7118 23.3815C21.4646 23.3815 21.2205 23.3257 20.9977 23.2184C20.7749 23.1111 20.5792 22.955 20.4251 22.7616C20.2583 22.5603 20.0378 22.4105 19.7892 22.3296Z" fill="white"/>
<path d="M19.5185 22.2984C19.4467 22.2984 19.3779 22.2699 19.3271 22.2192C19.2763 22.1684 19.2478 22.0995 19.2478 22.0277V10.5014C19.2478 10.4296 19.2763 10.3608 19.3271 10.31C19.3779 10.2592 19.4467 10.2307 19.5185 10.2307C19.5903 10.2307 19.6591 10.2592 19.7099 10.31C19.7607 10.3608 19.7892 10.4296 19.7892 10.5014V22.0277C19.7892 22.0995 19.7607 22.1684 19.7099 22.2192C19.6591 22.2699 19.5903 22.2984 19.5185 22.2984Z" fill="white"/>
<path d="M30.4816 23.3812C30.4098 23.3812 30.341 23.3527 30.2902 23.3019C30.2395 23.2512 30.2109 23.1823 30.2109 23.1105V10.5014C30.2109 10.4296 30.2395 10.3608 30.2902 10.31C30.341 10.2592 30.4098 10.2307 30.4816 10.2307C30.5534 10.2307 30.6223 10.2592 30.673 10.31C30.7238 10.3608 30.7523 10.4296 30.7523 10.5014V23.1105C30.7523 23.1823 30.7238 23.2512 30.673 23.3019C30.6223 23.3527 30.5534 23.3812 30.4816 23.3812Z" fill="white"/>
<path d="M29.9193 10.883H20.0808C19.6195 10.883 19.1771 10.6998 18.851 10.3736C18.5248 10.0474 18.3416 9.60505 18.3416 9.14378C18.3416 8.6825 18.5248 8.24012 18.851 7.91395C19.1771 7.58778 19.6195 7.40454 20.0808 7.40454H29.9193C30.3806 7.40454 30.823 7.58778 31.1491 7.91395C31.4753 8.24012 31.6586 8.6825 31.6586 9.14378C31.6586 9.60505 31.4753 10.0474 31.1491 10.3736C30.823 10.6998 30.3806 10.883 29.9193 10.883ZM20.0808 7.94594C19.7631 7.94594 19.4584 8.07214 19.2338 8.29678C19.0091 8.52142 18.8829 8.82609 18.8829 9.14378C18.8829 9.46146 19.0091 9.76614 19.2338 9.99078C19.4584 10.2154 19.7631 10.3416 20.0808 10.3416H29.9193C30.237 10.3416 30.5417 10.2154 30.7663 9.99078C30.991 9.76614 31.1172 9.46146 31.1172 9.14378C31.1172 8.82609 30.991 8.52142 30.7663 8.29678C30.5417 8.07214 30.237 7.94594 29.9193 7.94594H20.0808Z" fill="white"/>
<path d="M21.278 13.4332H19.5185C19.4467 13.4332 19.3779 13.4047 19.3271 13.354C19.2763 13.3032 19.2478 13.2343 19.2478 13.1625C19.2478 13.0908 19.2763 13.0219 19.3271 12.9711C19.3779 12.9204 19.4467 12.8918 19.5185 12.8918H21.278C21.3498 12.8918 21.4187 12.9204 21.4695 12.9711C21.5202 13.0219 21.5487 13.0908 21.5487 13.1625C21.5487 13.2343 21.5202 13.3032 21.4695 13.354C21.4187 13.4047 21.3498 13.4332 21.278 13.4332Z" fill="white"/>
<path d="M21.7179 16.5907H19.5185C19.4467 16.5907 19.3779 16.5622 19.3271 16.5114C19.2763 16.4607 19.2478 16.3918 19.2478 16.32C19.2478 16.2482 19.2763 16.1794 19.3271 16.1286C19.3779 16.0778 19.4467 16.0493 19.5185 16.0493H21.7179C21.7897 16.0493 21.8586 16.0778 21.9093 16.1286C21.9601 16.1794 21.9886 16.2482 21.9886 16.32C21.9886 16.3918 21.9601 16.4607 21.9093 16.5114C21.8586 16.5622 21.7897 16.5907 21.7179 16.5907Z" fill="white"/>
<path d="M21.278 19.7484H19.5185C19.4467 19.7484 19.3779 19.7199 19.3271 19.6691C19.2763 19.6184 19.2478 19.5495 19.2478 19.4777C19.2478 19.4059 19.2763 19.3371 19.3271 19.2863C19.3779 19.2356 19.4467 19.207 19.5185 19.207H21.278C21.3498 19.207 21.4187 19.2356 21.4695 19.2863C21.5202 19.3371 21.5487 19.4059 21.5487 19.4777C21.5487 19.5495 21.5202 19.6184 21.4695 19.6691C21.4187 19.7199 21.3498 19.7484 21.278 19.7484Z" fill="white"/>
<path d="M21.278 26.0636H19.5185C19.4467 26.0636 19.3779 26.0351 19.3271 25.9843C19.2763 25.9336 19.2478 25.8647 19.2478 25.7929C19.2478 25.7211 19.2763 25.6523 19.3271 25.6015C19.3779 25.5507 19.4467 25.5222 19.5185 25.5222H21.278C21.3498 25.5222 21.4187 25.5507 21.4695 25.6015C21.5202 25.6523 21.5487 25.7211 21.5487 25.7929C21.5487 25.8647 21.5202 25.9336 21.4695 25.9843C21.4187 26.0351 21.3498 26.0636 21.278 26.0636Z" fill="white"/>
<path d="M21.7179 29.2211H19.5185C19.4467 29.2211 19.3779 29.1926 19.3271 29.1418C19.2763 29.091 19.2478 29.0222 19.2478 28.9504C19.2478 28.8786 19.2763 28.8097 19.3271 28.759C19.3779 28.7082 19.4467 28.6797 19.5185 28.6797H21.7179C21.7897 28.6797 21.8586 28.7082 21.9093 28.759C21.9601 28.8097 21.9886 28.8786 21.9886 28.9504C21.9886 29.0222 21.9601 29.091 21.9093 29.1418C21.8586 29.1926 21.7897 29.2211 21.7179 29.2211Z" fill="white"/>
<path d="M21.278 32.3788H19.5185C19.4467 32.3788 19.3779 32.3503 19.3271 32.2995C19.2763 32.2487 19.2478 32.1799 19.2478 32.1081C19.2478 32.0363 19.2763 31.9675 19.3271 31.9167C19.3779 31.8659 19.4467 31.8374 19.5185 31.8374H21.278C21.3498 31.8374 21.4187 31.8659 21.4695 31.9167C21.5202 31.9675 21.5487 32.0363 21.5487 32.1081C21.5487 32.1799 21.5202 32.2487 21.4695 32.2995C21.4187 32.3503 21.3498 32.3788 21.278 32.3788Z" fill="white"/>
<path d="M21.7179 35.5363H19.5185C19.4467 35.5363 19.3779 35.5077 19.3271 35.457C19.2763 35.4062 19.2478 35.3374 19.2478 35.2656C19.2478 35.1938 19.2763 35.1249 19.3271 35.0742C19.3779 35.0234 19.4467 34.9949 19.5185 34.9949H21.7179C21.7897 34.9949 21.8586 35.0234 21.9093 35.0742C21.9601 35.1249 21.9886 35.1938 21.9886 35.2656C21.9886 35.3374 21.9601 35.4062 21.9093 35.457C21.8586 35.5077 21.7897 35.5363 21.7179 35.5363Z" fill="white"/>
<path d="M21.2779 38.6947H19.7512C19.6794 38.6947 19.6105 38.6662 19.5598 38.6154C19.509 38.5647 19.4805 38.4958 19.4805 38.424C19.4805 38.3522 19.509 38.2834 19.5598 38.2326C19.6105 38.1818 19.6794 38.1533 19.7512 38.1533H21.2779C21.3497 38.1533 21.4186 38.1818 21.4693 38.2326C21.5201 38.2834 21.5486 38.3522 21.5486 38.424C21.5486 38.4958 21.5201 38.5647 21.4693 38.6154C21.4186 38.6662 21.3497 38.6947 21.2779 38.6947Z" fill="white"/>
</svg>
