<svg width="50" height="50" viewBox="0 0 50 50" fill="none" xmlns="http://www.w3.org/2000/svg">
<rect width="50" height="50" fill="#166394"/>
<path d="M32.3982 16.1514C31.9074 15.3019 30.657 14.9911 28.8744 15.2752C28.5433 15.3283 28.1973 15.4057 27.8446 15.4975C27.2243 13.2971 26.1916 11.8816 24.9995 11.8816C23.8074 11.8816 22.7751 13.2971 22.1547 15.4975C21.802 15.4073 21.4563 15.3298 21.1249 15.2752C19.3424 14.9895 18.0919 15.3019 17.6011 16.1514C17.1103 17.001 17.4668 18.24 18.604 19.6406C18.8157 19.9013 19.056 20.1622 19.3106 20.4225C19.0567 20.6832 18.8157 20.9441 18.604 21.2048C17.4668 22.6054 17.1119 23.8445 17.6011 24.694C17.9732 25.3381 18.7824 25.673 19.929 25.673C20.3303 25.6706 20.7308 25.6367 21.1268 25.5714C21.4579 25.5184 21.804 25.441 22.1567 25.3492C22.777 27.5495 23.8097 28.9651 25.0014 28.9651C26.1932 28.9651 27.2262 27.5495 27.8465 25.3492C28.1992 25.4394 28.5449 25.5168 28.8763 25.5714C29.2715 25.637 29.6713 25.6714 30.0719 25.6743C31.2182 25.6743 32.0278 25.3394 32.3998 24.6952C32.8903 23.8457 32.5341 22.6067 31.397 21.206C31.1852 20.9454 30.9449 20.6844 30.6903 20.4238C30.9443 20.1635 31.1852 19.9025 31.397 19.6419C32.5325 18.24 32.8887 17 32.3982 16.1514ZM24.9998 12.5149C25.8287 12.5149 26.6925 13.687 27.244 15.6648C26.4772 15.9016 25.7274 16.1905 24.9998 16.5292C24.2724 16.1904 23.5227 15.9016 22.756 15.6648C23.3074 13.687 24.1713 12.5149 24.9998 12.5149ZM27.8274 20.4229C27.8274 20.9775 27.8068 21.5098 27.769 22.0194C27.3379 22.3143 26.8846 22.5994 26.4138 22.8711C25.943 23.1429 25.4703 23.3924 24.9998 23.6184C24.5297 23.3924 24.0567 23.1422 23.5862 22.8711C23.1157 22.6 22.662 22.3143 22.2309 22.0194C22.1932 21.5114 22.1725 20.9775 22.1725 20.4229C22.1725 19.8683 22.1932 19.3352 22.2309 18.8257C22.662 18.5311 23.1154 18.2457 23.5862 17.974C24.057 17.7022 24.5297 17.453 24.9998 17.227C25.4703 17.453 25.9433 17.7032 26.4138 17.974C26.8843 18.2448 27.3379 18.5311 27.769 18.8257C27.8068 19.3352 27.8274 19.8679 27.8274 20.4229ZM28.4332 19.3013C28.9016 19.6508 29.351 20.0251 29.7795 20.4225C29.3511 20.8201 28.9016 21.1944 28.4332 21.5438C28.4519 21.1775 28.4624 20.8038 28.4624 20.4229C28.4624 20.0419 28.4519 19.6667 28.4332 19.3013ZM27.6925 22.8289C27.6259 23.4124 27.528 23.9918 27.3992 24.5648C26.8364 24.3915 26.2833 24.188 25.7424 23.9552C26.0722 23.7864 26.4027 23.6111 26.7313 23.4213C27.0598 23.2314 27.3808 23.0318 27.6925 22.8289ZM24.2576 23.9552C23.7167 24.188 23.1636 24.3915 22.6008 24.5648C22.4719 23.9918 22.3739 23.4124 22.3074 22.8289C22.6201 23.0314 22.9386 23.2305 23.2687 23.4213C23.5989 23.6121 23.9274 23.7864 24.2576 23.9552ZM21.5668 21.5425C21.0984 21.1932 20.6491 20.8189 20.2208 20.4213C20.6491 20.0238 21.0985 19.6495 21.5668 19.3C21.5481 19.6667 21.5376 20.0403 21.5376 20.4216C21.5376 20.8029 21.5481 21.1775 21.5668 21.5438V21.5425ZM22.3074 18.0159C22.3741 17.4324 22.472 16.853 22.6008 16.28C23.1636 16.4533 23.7167 16.6567 24.2576 16.8895C23.9274 17.0581 23.5973 17.2337 23.2687 17.4235C22.9401 17.6133 22.6189 17.814 22.3074 18.0159ZM26.7313 17.4235C26.4027 17.233 26.0725 17.0581 25.7424 16.8895C26.2833 16.6567 26.8364 16.4533 27.3992 16.28C27.528 16.853 27.6259 17.4324 27.6925 18.0159C27.3808 17.814 27.0614 17.6146 26.7313 17.4241V17.4235ZM18.1519 16.4689C18.4027 16.034 19.0268 15.8067 19.9201 15.8067C20.2903 15.8094 20.6597 15.8413 21.0249 15.9019C21.3373 15.9518 21.6643 16.0251 21.9976 16.1105C21.8194 16.8901 21.695 17.6811 21.6252 18.4778C20.9722 18.9357 20.3509 19.4373 19.7655 19.9791C19.5246 19.733 19.2973 19.486 19.0989 19.24C18.1519 18.0756 17.8071 17.0654 18.1519 16.4689ZM21.0249 24.9432C19.543 25.1794 18.496 24.9733 18.1519 24.3765C17.8078 23.7797 18.1519 22.7698 19.0976 21.6051C19.2973 21.3591 19.5246 21.1121 19.7643 20.8657C20.3495 21.4077 20.9709 21.9093 21.624 22.3673C21.6938 23.164 21.8182 23.955 21.9963 24.7346C21.6643 24.82 21.3373 24.8933 21.0249 24.9432ZM24.9998 28.3305C24.1713 28.3305 23.3074 27.1584 22.756 25.1806C23.5227 24.9438 24.2724 24.655 24.9998 24.3162C25.7274 24.6549 26.4772 24.9438 27.244 25.1806C26.6925 27.1587 25.8287 28.3305 24.9998 28.3305ZM31.8481 24.3765C31.504 24.9733 30.457 25.1794 28.9747 24.9432C28.6624 24.8933 28.3357 24.82 28.0024 24.7346C28.1805 23.955 28.3049 23.164 28.3747 22.3673C29.0278 21.9093 29.6491 21.4077 30.2344 20.8657C30.4754 21.1121 30.7027 21.3591 30.9011 21.6051C31.8481 22.7698 32.1928 23.78 31.8481 24.3765ZM30.2344 19.9794C29.6491 19.4376 29.0278 18.9361 28.3747 18.4781C28.3049 17.6815 28.1805 16.8907 28.0024 16.1111C28.3357 16.0257 28.6624 15.9524 28.9747 15.9025C30.4563 15.6664 31.5036 15.8724 31.8481 16.4692C32.1925 17.066 31.8481 18.0759 30.9024 19.2406C30.7027 19.4864 30.4754 19.7333 30.2344 19.9794Z" fill="white"/>
<path d="M24.9999 18.8354C24.686 18.8354 24.3791 18.9285 24.118 19.103C23.857 19.2774 23.6536 19.5253 23.5334 19.8153C23.4133 20.1054 23.3819 20.4245 23.4431 20.7324C23.5043 21.0403 23.6555 21.3232 23.8775 21.5451C24.0995 21.7671 24.3823 21.9183 24.6902 21.9796C24.9981 22.0408 25.3173 22.0094 25.6073 21.8892C25.8974 21.7691 26.1453 21.5656 26.3197 21.3046C26.4941 21.0436 26.5872 20.7367 26.5872 20.4228C26.5867 20.0019 26.4193 19.5985 26.1217 19.3009C25.8242 19.0033 25.4207 18.836 24.9999 18.8354ZM24.9999 21.3751C24.8115 21.3751 24.6274 21.3193 24.4708 21.2146C24.3142 21.11 24.1921 20.9612 24.12 20.7872C24.0479 20.6132 24.0291 20.4217 24.0658 20.237C24.1026 20.0522 24.1933 19.8825 24.3265 19.7493C24.4597 19.6161 24.6294 19.5254 24.8141 19.4887C24.9988 19.4519 25.1903 19.4708 25.3644 19.5429C25.5384 19.6149 25.6871 19.737 25.7918 19.8936C25.8964 20.0503 25.9523 20.2344 25.9523 20.4228C25.9523 20.6753 25.8519 20.9176 25.6733 21.0962C25.4947 21.2748 25.2525 21.3751 24.9999 21.3751Z" fill="white"/>
<path d="M41.7203 6.97412H8.27968C7.41017 6.97513 6.57655 7.32099 5.96171 7.93583C5.34687 8.55067 5.00101 9.38429 5 10.2538V33.7662C5.00101 34.6357 5.34687 35.4693 5.96171 36.0842C6.57655 36.699 7.41017 37.0449 8.27968 37.0459H19.9797V42.3913H14.9556C14.8714 42.3913 14.7906 42.4247 14.7311 42.4842C14.6715 42.5438 14.6381 42.6245 14.6381 42.7087C14.6381 42.7929 14.6715 42.8737 14.7311 42.9332C14.7906 42.9927 14.8714 43.0262 14.9556 43.0262H35.0444C35.1286 43.0262 35.2094 42.9927 35.2689 42.9332C35.3285 42.8737 35.3619 42.7929 35.3619 42.7087C35.3619 42.6245 35.3285 42.5438 35.2689 42.4842C35.2094 42.4247 35.1286 42.3913 35.0444 42.3913H30.0203V37.0459H41.7203C42.5898 37.0449 43.4234 36.699 44.0383 36.0842C44.6531 35.4693 44.999 34.6357 45 33.7662V10.2538C44.999 9.38429 44.6531 8.55067 44.0383 7.93583C43.4234 7.32099 42.5898 6.97513 41.7203 6.97412ZM29.3854 42.3913H20.6146V37.0459H29.3854V42.3913ZM44.3651 33.7662C44.3643 34.4674 44.0854 35.1397 43.5896 35.6355C43.0938 36.1313 42.4215 36.4102 41.7203 36.4109H8.27968C7.57848 36.4102 6.90621 36.1313 6.41039 35.6355C5.91456 35.1397 5.63568 34.4674 5.63492 33.7662V10.2538C5.63576 9.55263 5.91467 8.88041 6.41048 8.3846C6.90629 7.8888 7.57851 7.60988 8.27968 7.60904H41.7203C42.4215 7.60988 43.0937 7.8888 43.5895 8.3846C44.0853 8.88041 44.3642 9.55263 44.3651 10.2538V33.7662Z" fill="white"/>
<path d="M24.8549 32.9709C24.6141 32.9709 24.3787 33.0424 24.1785 33.1761C23.9783 33.3099 23.8223 33.5 23.7301 33.7225C23.638 33.945 23.6139 34.1898 23.6608 34.4259C23.7078 34.6621 23.8238 34.879 23.994 35.0493C24.1643 35.2195 24.3812 35.3355 24.6174 35.3825C24.8536 35.4295 25.0984 35.4053 25.3208 35.3132C25.5433 35.221 25.7334 35.065 25.8672 34.8648C26.001 34.6646 26.0724 34.4292 26.0724 34.1884C26.072 33.8656 25.9436 33.5562 25.7153 33.328C25.4871 33.0998 25.1777 32.9714 24.8549 32.9709ZM24.8549 34.7709C24.7397 34.7709 24.6271 34.7368 24.5313 34.6728C24.4355 34.6088 24.3608 34.5178 24.3167 34.4113C24.2726 34.3049 24.2611 34.1878 24.2836 34.0748C24.306 33.9618 24.3615 33.858 24.443 33.7765C24.5245 33.695 24.6283 33.6395 24.7413 33.6171C24.8543 33.5946 24.9714 33.6061 25.0778 33.6502C25.1843 33.6943 25.2753 33.769 25.3393 33.8648C25.4033 33.9606 25.4375 34.0732 25.4375 34.1884C25.4373 34.3429 25.3759 34.4909 25.2666 34.6001C25.1574 34.7094 25.0094 34.7708 24.8549 34.7709Z" fill="white"/>
</svg>
