<svg width="50" height="50" viewBox="0 0 50 50" fill="none" xmlns="http://www.w3.org/2000/svg">
<rect width="50" height="50" fill="#166394"/>
<path d="M7.56396 42.0942H11.5934C11.668 42.0942 11.7396 42.0645 11.7923 42.0118C11.8451 41.9591 11.8747 41.8875 11.8747 41.8129V40.7419L16.231 39.6642C16.8537 39.6715 25.2523 39.7674 28.8703 39.6642C32.593 39.5579 34.281 37.9283 34.452 37.7534L41.9046 31.4137C42.6159 30.809 43.0161 29.4981 42.4463 28.7778C42.1885 28.4535 41.8221 28.2334 41.4146 28.1582C41.0072 28.0829 40.5863 28.1577 40.2297 28.3686L33.232 32.5983C33.2628 32.3438 33.2391 32.0856 33.1626 31.841C33.086 31.5963 32.9582 31.3707 32.7878 31.1792C32.6173 30.9877 32.4081 30.8346 32.1739 30.7301C31.9398 30.6257 31.6861 30.5722 31.4297 30.5733H26.5981C22.1544 26.5115 16.753 30.0671 16.0358 30.5733H11.8747V29.4691C11.8747 29.3946 11.8451 29.323 11.7923 29.2703C11.7396 29.2175 11.668 29.1879 11.5934 29.1879H7.56396C7.48937 29.1879 7.41784 29.2175 7.36509 29.2703C7.31235 29.323 7.28271 29.3946 7.28271 29.4691V41.8129C7.28271 41.8875 7.31235 41.9591 7.36509 42.0118C7.41784 42.0645 7.48937 42.0942 7.56396 42.0942ZM16.1263 31.1372C16.1878 31.1376 16.2476 31.1178 16.2968 31.081C16.353 31.0391 21.8785 26.9185 26.2955 31.0624C26.3476 31.1113 26.4164 31.1384 26.4879 31.1384H31.4297C31.7619 31.1384 32.0806 31.2703 32.3155 31.5053C32.5504 31.7402 32.6824 32.0588 32.6824 32.3911C32.6824 32.7233 32.5504 33.0419 32.3155 33.2768C32.0806 33.5118 31.7619 33.6437 31.4297 33.6437H24.365C24.2904 33.6437 24.2189 33.6734 24.1661 33.7261C24.1134 33.7789 24.0837 33.8504 24.0837 33.925C24.0837 33.9996 24.1134 34.0711 24.1661 34.1239C24.2189 34.1766 24.2904 34.2062 24.365 34.2062H31.4297C31.7148 34.2061 31.9958 34.1387 32.2499 34.0096C32.504 33.8804 32.7241 33.6931 32.8922 33.4629L40.5197 28.8504C40.7592 28.7096 41.0414 28.6599 41.3145 28.7105C41.5877 28.7612 41.8334 28.9087 42.0064 29.126C42.3627 29.576 42.0463 30.5551 41.5412 30.9845L34.0766 37.3335C34.0687 37.3401 34.0613 37.3473 34.0543 37.3548C34.0386 37.3711 32.4512 38.9987 28.8543 39.1014C25.1249 39.208 16.2909 39.1014 16.2017 39.1014C16.1778 39.1011 16.154 39.1038 16.1308 39.1096L11.8747 40.1626V31.1372H16.1263ZM7.84521 29.7504H11.3122V41.5317H7.84521V29.7504Z" fill="white"/>
<path d="M20.0604 23.6583C19.6149 23.6567 19.1818 23.8056 18.8316 24.0809C18.4813 24.3562 18.2343 24.7417 18.1307 25.175C18.027 25.6083 18.0728 26.0639 18.2605 26.4679C18.4483 26.872 18.767 27.2007 19.165 27.4008C19.5631 27.601 20.017 27.6608 20.4533 27.5706C20.8896 27.4804 21.2826 27.2454 21.5686 26.9038C21.8546 26.5622 22.0168 26.134 22.0289 25.6887C22.0411 25.2433 21.9024 24.807 21.6354 24.4503L25.3605 20.7243C25.8022 21.1088 26.3242 21.3897 26.8884 21.5464C27.4527 21.703 28.0448 21.7315 28.6215 21.6297C29.1981 21.5279 29.7447 21.2984 30.2212 20.9581C30.6977 20.6177 31.092 20.1751 31.3753 19.6626L33.9237 20.8483C33.7804 21.3269 33.8236 21.8421 34.0448 22.29C34.266 22.738 34.6487 23.0855 35.1158 23.2627C35.583 23.4399 36.0999 23.4335 36.5625 23.2448C37.0251 23.0562 37.3991 22.6993 37.6091 22.246C37.8192 21.7927 37.8497 21.2766 37.6945 20.8017C37.5394 20.3268 37.2101 19.9283 36.7729 19.6865C36.3358 19.4446 35.8232 19.3774 35.3384 19.4982C34.8537 19.6191 34.4327 19.9191 34.1603 20.3379L31.6107 19.1513C31.8669 18.4877 31.9368 17.7668 31.8129 17.0664C31.6889 16.366 31.3759 15.7129 30.9076 15.1775L32.9458 13.139C33.3458 13.4384 33.8443 13.5752 34.3411 13.5218C34.8378 13.4683 35.2959 13.2287 35.6231 12.8511C35.9502 12.4736 36.1222 11.9861 36.1044 11.4868C36.0865 10.9875 35.8802 10.5135 35.5269 10.1602C35.1737 9.80693 34.6997 9.6006 34.2004 9.58277C33.7011 9.56494 33.2136 9.73692 32.836 10.0641C32.4584 10.3913 32.2188 10.8493 32.1654 11.3461C32.112 11.8428 32.2487 12.3414 32.5481 12.7413L30.5099 14.7798C29.8689 14.2225 29.064 13.8887 28.2166 13.8289V11.8233C28.7092 11.7522 29.1567 11.4971 29.4688 11.1095C29.781 10.7218 29.9347 10.2302 29.8991 9.73377C29.8634 9.23731 29.641 8.77277 29.2767 8.43365C28.9124 8.09454 28.4331 7.90601 27.9354 7.90601C27.4376 7.90601 26.9584 8.09454 26.594 8.43365C26.2297 8.77277 26.0073 9.23731 25.9717 9.73377C25.936 10.2302 26.0897 10.7218 26.4019 11.1095C26.7141 11.4971 27.1615 11.7522 27.6541 11.8233V13.8289C27.0978 13.8688 26.5564 14.0267 26.0659 14.292C25.5753 14.5573 25.1469 14.9239 24.809 15.3676L22.406 13.7999C22.6182 13.3475 22.6512 12.8315 22.4983 12.3558C22.3454 11.88 22.0179 11.4798 21.5818 11.2358C21.1458 10.9918 20.6334 10.922 20.1479 11.0406C19.6625 11.1591 19.24 11.4572 18.9654 11.8747C18.6909 12.2923 18.5847 12.7983 18.6683 13.291C18.7518 13.7837 19.019 14.2264 19.4158 14.5301C19.8127 14.8338 20.3099 14.9758 20.8073 14.9276C21.3047 14.8795 21.7654 14.6447 22.0966 14.2705L24.4971 15.8365C24.1019 16.5414 23.9343 17.3513 24.0175 18.1552C24.1007 18.9591 24.4305 19.7176 24.9617 20.3266L21.2371 24.0526C20.8981 23.7969 20.485 23.6585 20.0604 23.6583ZM35.8104 20.0021C36.0885 20.0021 36.3604 20.0845 36.5916 20.2391C36.8229 20.3936 37.0031 20.6132 37.1096 20.8702C37.216 21.1271 37.2439 21.4099 37.1896 21.6827C37.1353 21.9554 37.0014 22.206 36.8047 22.4027C36.6081 22.5993 36.3575 22.7333 36.0847 22.7875C35.8119 22.8418 35.5292 22.814 35.2722 22.7075C35.0153 22.6011 34.7956 22.4208 34.6411 22.1896C34.4866 21.9583 34.4041 21.6864 34.4041 21.4083C34.4046 21.0355 34.5529 20.6781 34.8165 20.4144C35.0801 20.1508 35.4375 20.0025 35.8104 20.0021ZM20.6229 14.3771C20.3447 14.3771 20.0728 14.2946 19.8416 14.1401C19.6103 13.9855 19.4301 13.7659 19.3237 13.509C19.2172 13.252 19.1894 12.9693 19.2436 12.6965C19.2979 12.4237 19.4318 12.1731 19.6285 11.9764C19.8252 11.7798 20.0757 11.6458 20.3485 11.5916C20.6213 11.5373 20.9041 11.5652 21.161 11.6716C21.418 11.778 21.6376 11.9583 21.7921 12.1895C21.9466 12.4208 22.0291 12.6927 22.0291 12.9708C22.0287 13.3436 21.8804 13.7011 21.6167 13.9647C21.3531 14.2283 20.9957 14.3766 20.6229 14.3771ZM20.0604 27.0333C19.7822 27.0333 19.5103 26.9508 19.2791 26.7963C19.0478 26.6418 18.8676 26.4222 18.7612 26.1652C18.6547 25.9083 18.6269 25.6255 18.6811 25.3527C18.7354 25.0799 18.8693 24.8294 19.066 24.6327C19.2627 24.436 19.5132 24.3021 19.786 24.2478C20.0588 24.1936 20.3416 24.2214 20.5985 24.3279C20.8555 24.4343 21.0751 24.6145 21.2296 24.8458C21.3841 25.077 21.4666 25.3489 21.4666 25.6271C21.4662 25.9999 21.3179 26.3573 21.0542 26.6209C20.7906 26.8846 20.4332 27.0329 20.0604 27.0333ZM34.1229 10.1583C34.3542 10.1582 34.5819 10.2151 34.7859 10.324C34.99 10.4329 35.164 10.5905 35.2926 10.7827C35.4212 10.975 35.5004 11.196 35.5231 11.4261C35.5459 11.6563 35.5116 11.8885 35.4231 12.1022C35.3347 12.3159 35.1949 12.5045 35.0162 12.6513C34.8374 12.7981 34.6253 12.8985 34.3984 12.9437C34.1716 12.9889 33.9371 12.9774 33.7158 12.9103C33.4944 12.8432 33.2931 12.7226 33.1295 12.5591C32.9332 12.3623 32.7995 12.1118 32.7455 11.8392C32.6914 11.5666 32.7193 11.284 32.8258 11.0273C32.9322 10.7705 33.1123 10.5511 33.3433 10.3966C33.5744 10.2421 33.8461 10.1596 34.124 10.1594L34.1229 10.1583ZM26.5291 9.87706C26.5291 9.59893 26.6116 9.32705 26.7661 9.09579C26.9206 8.86454 27.1403 8.68429 27.3972 8.57786C27.6542 8.47142 27.9369 8.44357 28.2097 8.49783C28.4825 8.55209 28.7331 8.68603 28.9297 8.88269C29.1264 9.07936 29.2603 9.32993 29.3146 9.60272C29.3689 9.8755 29.341 10.1583 29.2346 10.4152C29.1281 10.6722 28.9479 10.8918 28.7166 11.0463C28.4854 11.2008 28.2135 11.2833 27.9354 11.2833C27.5625 11.2829 27.2051 11.1346 26.9415 10.8709C26.6779 10.6073 26.5296 10.2499 26.5291 9.87706ZM27.9354 14.3771C28.6029 14.3771 29.2554 14.575 29.8104 14.9459C30.3654 15.3167 30.798 15.8438 31.0535 16.4605C31.3089 17.0772 31.3757 17.7558 31.2455 18.4105C31.1153 19.0652 30.7939 19.6665 30.3219 20.1385C29.8498 20.6106 29.2485 20.932 28.5938 21.0622C27.9391 21.1924 27.2605 21.1256 26.6438 20.8702C26.0271 20.6147 25.5 20.1821 25.1292 19.6271C24.7583 19.0721 24.5604 18.4196 24.5604 17.7521C24.5613 16.8573 24.9172 15.9994 25.5499 15.3666C26.1827 14.7339 27.0406 14.378 27.9354 14.3771Z" fill="white"/>
</svg>
