<svg width="30" height="28" viewBox="0 0 30 28" fill="none" xmlns="http://www.w3.org/2000/svg">
<g clip-path="url(#clip0_52_97)">
<path d="M29.8017 13.5513L22.9837 7.18778C22.7388 6.92085 22.3084 6.88974 22.0224 7.11838C21.7364 7.34697 21.703 7.7487 21.948 8.01562C21.9709 8.0405 21.9957 8.06375 22.0224 8.08502L27.6745 13.3668H0.681785C0.305268 13.3668 0 13.6517 0 14.0031C0 14.3546 0.305268 14.6395 0.681785 14.6395H27.6745L22.0224 19.9148C21.7364 20.1434 21.703 20.5451 21.948 20.8121C22.193 21.079 22.6234 21.1101 22.9093 20.8815C22.936 20.8601 22.9609 20.8369 22.9837 20.8121L29.8018 14.4485C30.0661 14.2004 30.0661 13.7995 29.8017 13.5513Z" fill="white"/>
</g>
<defs>
<clipPath id="clip0_52_97">
<rect width="30" height="28" fill="white"/>
</clipPath>
</defs>
</svg>
