<svg width="61" height="56" viewBox="0 0 61 56" fill="none" xmlns="http://www.w3.org/2000/svg">
<g clip-path="url(#clip0_111_50)">
<path d="M44.2701 26.9588C46.7715 25.9538 49.0819 24.8967 51.1106 23.8221C51.0817 21.2871 50.7392 19.4944 50.0195 18.0483C49.2948 19.7991 48.2341 22.3494 47.921 23.0875C47.8086 23.3527 47.6485 23.5204 47.4382 23.5204C47.2296 23.5204 47.1044 23.3993 46.9534 23.1024C46.7279 22.6592 45.3246 19.7525 44.2701 17.5504V26.9588ZM13.122 21.9175V12.8726C11.2983 15.3171 10.1384 18.7158 9.87609 21.9175H13.122ZM60.6981 15.9221C60.6981 21.6666 46.8313 29.1299 28.443 33.445C22.7163 34.7888 16.1795 35.8486 10.9692 35.8486C3.39192 35.8486 0.302002 33.1607 0.302002 30.132C0.302002 28.2827 1.42099 26.5494 3.76548 24.9829C3.88998 24.8997 4.02254 24.8385 4.12976 24.8385C4.26565 24.8385 4.34945 24.9248 4.34945 25.0385C4.34945 25.1399 4.29335 25.2234 4.15671 25.3309C2.31782 26.7812 1.38397 28.2911 1.38397 29.8573C1.38397 32.0026 3.73238 34.3292 10.8437 34.3292C11.5348 34.3292 12.2992 34.3051 13.122 34.2586V25.4435H9.88739C9.99996 27.0081 10.2682 28.364 10.8051 30.2812C10.8657 30.4978 10.9001 30.6754 10.9001 30.7825C10.9001 31.0831 10.7574 31.2531 10.3154 31.4154C9.78476 31.6104 9.31856 31.7754 8.84409 31.9334C8.65118 31.9978 8.48826 32.028 8.34859 32.028C8.02132 32.028 7.82784 31.8429 7.66884 31.4699C6.65438 29.0884 6.28573 26.023 6.28573 23.5622C6.28573 16.5137 10.0545 9.57432 15.414 5.53868C15.6751 5.33847 15.9253 5.25818 16.0991 5.25818C16.4612 5.25818 16.6655 5.52589 16.6655 5.82736V33.9559C17.5052 33.863 18.3783 33.7534 19.2775 33.6267V28.5022C19.2775 27.8531 19.5324 27.6297 20.2286 27.6297H21.9165C22.6123 27.6297 22.8331 27.8531 22.8331 28.5022V33.0609C23.7942 32.8907 24.7708 32.7043 25.7556 32.5016V27.6718C25.7556 26.7691 25.518 26.4192 24.8289 26.0108C24.1302 25.5972 22.7616 24.781 21.794 24.1978C20.0723 23.1601 19.2775 22.2242 19.2775 20.0406V5.18312C19.2775 4.09256 19.5043 3.38941 20.5031 2.75398C22.4397 1.52253 25.8628 0.361951 27.5371 0.361951C28.5714 0.361951 29.0109 0.848324 29.0109 1.66216V18.4777C29.0109 19.1267 28.792 19.3504 28.0962 19.3504H26.3719C25.6761 19.3504 25.4576 19.1267 25.4576 18.4777V5.20807C25.4576 4.69402 25.3416 4.50325 24.9327 4.50325C24.6165 4.50325 24.0075 4.71855 23.5382 5.00828C23.0275 5.32358 22.9136 5.66258 22.9136 6.2848V19.2435C22.9136 20.1733 23.0682 20.4433 23.8202 20.9047C24.7278 21.4615 26.0473 22.2429 26.8547 22.7177C28.6548 23.7758 29.3699 24.8175 29.3699 26.8749V31.69C30.5848 31.3957 31.7948 31.0806 32.9937 30.7481V3.96258C32.5665 3.9087 31.7522 3.81688 30.9245 3.72778C30.2591 3.65629 30.1563 3.3827 30.1563 2.90765V1.11604C30.1563 0.588575 30.4267 0.298638 31.0071 0.298638C33.1787 0.298638 37.0853 1.0827 38.716 1.73365C39.3665 1.9934 39.501 2.24036 39.501 2.70954V4.73742C39.501 5.16908 39.2793 5.37012 38.9477 5.37012C38.8068 5.37012 38.6516 5.32903 38.3241 5.2219C37.5897 4.98144 36.9517 4.79046 36.5348 4.67537V29.7039C37.9321 29.2672 39.3036 28.8089 40.638 28.3334V3.17977C40.638 2.81101 40.8374 2.54874 41.1872 2.54874C41.5548 2.54874 41.7568 2.83931 42.0237 3.45503C43.0595 5.84455 45.5271 11.5452 47.5005 16.0919C48.2108 14.1215 49.0798 11.7093 49.261 11.1877C49.3935 10.8056 49.5846 10.6167 49.8729 10.6167C50.0961 10.6167 50.2789 10.7301 50.5492 11.067C52.8007 14.1542 54.1776 17.6225 54.5576 21.7982C57.7133 19.7162 59.6179 17.651 59.6179 15.8508C59.6179 14.077 57.9144 12.5519 53.8211 12.3477C53.6313 12.3381 53.5235 12.2456 53.5235 12.1053C53.5235 11.976 53.6305 11.8733 53.8389 11.8733C58.4783 11.8733 60.6981 13.8829 60.6981 15.9221ZM25.7556 35.5439V42.8141C25.7556 43.328 25.5455 43.523 25.1366 43.523C24.7006 43.523 23.9255 43.3571 23.4817 43.0942C22.9654 42.7879 22.8331 42.4783 22.8331 41.8068V36.0684C21.6327 36.2796 20.4452 36.4542 19.2769 36.6152L19.2775 43.0184C19.2775 44.3523 19.6769 45.0766 20.9449 45.7951C22.601 46.7336 26.0735 47.5779 27.807 47.5779C28.8606 47.5779 29.3699 46.986 29.3699 46.0957V34.7412C28.1614 35.0301 26.9547 35.2982 25.7556 35.5439ZM13.122 37.1634V39.5234C13.122 40.3602 13.2999 40.6885 13.7894 41.0936C14.2923 41.5095 14.893 42.0036 15.5395 42.5305C15.7617 42.7118 15.9857 42.7987 16.1747 42.7987C16.4599 42.7987 16.6657 42.6032 16.6655 42.197V36.9108C15.473 37.016 14.2707 37.1003 13.122 37.1634ZM32.9937 33.8301V46.6791C32.9937 47.1089 33.2135 47.3691 33.6843 47.3691C34.1909 47.3691 35.2187 47.1458 35.8417 46.9389C36.3622 46.7653 36.5348 46.5121 36.5348 46.0114V32.8097C35.3915 33.1567 34.21 33.497 32.9937 33.8301ZM44.2701 30.1955C43.1144 30.6418 41.9038 31.0823 40.638 31.5152V44.4649C40.638 44.9252 40.85 45.1508 41.2508 45.1508C41.4011 45.1508 41.5473 45.1269 41.7545 45.0395C42.181 44.86 43.3248 44.2389 43.7618 43.928C44.1991 43.6168 44.2701 43.3708 44.2701 42.7261V30.1955ZM54.6486 25.1588C54.4582 29.7659 52.8218 34.7005 49.2602 38.9886C49.0882 39.1947 48.9584 39.2674 48.7529 39.2674C48.5467 39.2674 48.3941 39.1934 48.2099 39.0477C47.8836 38.7894 47.089 38.1615 46.8464 37.9609C46.6216 37.7745 46.4991 37.5953 46.4991 37.367C46.4991 37.1498 46.6069 36.9445 46.7506 36.7374C49.1257 33.3097 50.4016 30.4271 50.8837 27.3072C51.8918 26.824 53.5804 25.8695 54.6486 25.1588Z" fill="white"/>
<path d="M2.96145 54.2935L2.1132 52.1342L1.25872 54.2935H2.96145ZM3.65341 55.6648C3.55109 55.6648 3.45475 55.6046 3.41258 55.5023L3.11186 54.7386H1.1143L0.813577 55.5023C0.77139 55.6046 0.675218 55.6648 0.572903 55.6648C0.410461 55.6648 0.302002 55.5386 0.302002 55.4002C0.302002 55.3702 0.308146 55.334 0.32027 55.304L1.70394 51.8516C1.77021 51.6891 1.92659 51.5809 2.1132 51.5809C2.28743 51.5809 2.44398 51.6891 2.51008 51.8516L3.90604 55.304C3.91816 55.334 3.92406 55.3702 3.92406 55.4002C3.92406 55.5206 3.81585 55.6648 3.65341 55.6648Z" fill="white"/>
<path d="M5.91981 55.7009C5.33043 55.7009 4.84302 55.5024 4.51198 55.2018C4.458 55.1538 4.43384 55.0936 4.43384 55.0213C4.43384 54.9012 4.52403 54.7687 4.66852 54.7687C4.71661 54.7687 4.77076 54.7747 4.81295 54.8169C5.09572 55.0635 5.4746 55.2559 5.93808 55.2559C6.65396 55.2559 6.88252 54.871 6.88252 54.5643C6.88252 53.5297 4.506 54.1012 4.506 52.6695C4.506 52.0142 5.09572 51.5569 5.88385 51.5569C6.39535 51.5569 6.85245 51.7134 7.17135 51.984C7.22558 52.032 7.25563 52.0922 7.25563 52.1645C7.25563 52.2846 7.15931 52.4049 7.02095 52.4049C6.9668 52.4049 6.91872 52.3869 6.87652 52.3509C6.58171 52.1104 6.21464 52.002 5.84782 52.002C5.36639 52.002 5.02348 52.2547 5.02348 52.6396C5.02348 53.5418 7.39989 53.0244 7.39989 54.5222C7.39989 55.1056 7.00302 55.7009 5.91981 55.7009Z" fill="white"/>
<path d="M10.6652 52.0621H9.57009V55.4183C9.57009 55.5566 9.46188 55.6648 9.31748 55.6648C9.17911 55.6648 9.0709 55.5566 9.0709 55.4183V52.0621H7.9818C7.86147 52.0621 7.76538 51.972 7.76538 51.8336C7.76538 51.7133 7.86147 51.617 7.9818 51.617H10.6652C10.7857 51.617 10.8818 51.7071 10.8818 51.8455C10.8818 51.9658 10.7857 52.0621 10.6652 52.0621Z" fill="white"/>
<path d="M15.3445 55.4183C15.3445 55.5566 15.2363 55.6648 15.0919 55.6648C14.9535 55.6648 14.8452 55.5566 14.8452 55.4183V52.3266L13.4975 55.5866C13.4794 55.6346 13.4373 55.6648 13.3711 55.6648C13.3229 55.6648 13.2748 55.6346 13.2568 55.5866L11.9151 52.3266V55.4183C11.9151 55.5566 11.8069 55.6648 11.6623 55.6648C11.5241 55.6648 11.4158 55.5566 11.4158 55.4183V51.9897C11.4158 51.7734 11.5962 51.5868 11.8309 51.5868C11.9934 51.5868 12.1618 51.6772 12.2281 51.8395L13.3771 54.6363L14.5323 51.8395C14.5986 51.6772 14.761 51.5868 14.9294 51.5868C15.152 51.5868 15.3445 51.7734 15.3445 51.9897V55.4183Z" fill="white"/>
<path d="M18.0234 55.4183C18.0234 55.5566 17.9152 55.6648 17.7707 55.6648C17.6325 55.6648 17.5242 55.5566 17.5242 55.4183V51.8214C17.5242 51.683 17.6325 51.5809 17.7828 51.5809C17.9211 51.5809 18.0234 51.683 18.0234 51.8214V55.4183Z" fill="white"/>
<path d="M22.1313 55.382C22.1313 55.5265 22.0111 55.6648 21.8306 55.6648C21.7343 55.6648 21.6381 55.6168 21.5838 55.5386L19.3095 52.429V55.4183C19.3095 55.5566 19.2013 55.6648 19.0569 55.6648C18.9185 55.6648 18.8103 55.5566 18.8103 55.4183V51.8816C18.8103 51.7193 18.9427 51.5809 19.129 51.5809C19.2314 51.5809 19.3277 51.6231 19.3938 51.7133L21.632 54.7507V51.8214C21.632 51.683 21.7404 51.5809 21.8908 51.5809C22.029 51.5809 22.1313 51.683 22.1313 51.8214V55.382Z" fill="white"/>
<path d="M25.5954 52.0621H24.5003V55.4183C24.5003 55.5566 24.3921 55.6648 24.2476 55.6648C24.1094 55.6648 24.0012 55.5566 24.0012 55.4183V52.0621H22.912C22.7918 52.0621 22.6956 51.972 22.6956 51.8336C22.6956 51.7133 22.7918 51.617 22.912 51.617H25.5954C25.716 51.617 25.812 51.7071 25.812 51.8455C25.812 51.9658 25.716 52.0621 25.5954 52.0621Z" fill="white"/>
<path d="M28.7947 55.6289H26.7071C26.5085 55.6289 26.3462 55.4664 26.3462 55.2681V51.9779C26.3462 51.7794 26.5085 51.6172 26.7071 51.6172H28.7947C28.9151 51.6172 29.0114 51.7073 29.0114 51.8457C29.0114 51.966 28.9151 52.0623 28.7947 52.0623H26.8453V53.3553H28.7526C28.873 53.3553 28.9692 53.4457 28.9692 53.5841C28.9692 53.7041 28.873 53.8006 28.7526 53.8006H26.8453V55.1838H28.7947C28.9151 55.1838 29.0114 55.28 29.0114 55.4003C29.0114 55.5387 28.9151 55.6289 28.7947 55.6289Z" fill="white"/>
<path d="M30.2369 52.0621V53.5958H31.2901C31.7713 53.5958 32.0903 53.283 32.0903 52.8259C32.0903 52.3688 31.7713 52.0621 31.2901 52.0621H30.2369ZM31.5667 53.9927L32.4271 55.2979C32.4512 55.3401 32.4632 55.382 32.4632 55.4241C32.4632 55.5445 32.3608 55.6648 32.2165 55.6648C32.1383 55.6648 32.0662 55.6288 32.018 55.5566L31.0371 54.0348H30.2369V55.4183C30.2369 55.5566 30.1287 55.6648 29.9842 55.6648C29.846 55.6648 29.7378 55.5566 29.7378 55.4183V51.9778C29.7378 51.7793 29.9001 51.617 30.0987 51.617H31.3502C32.084 51.617 32.6074 52.086 32.6074 52.8259C32.6074 53.5476 32.1203 53.9447 31.5667 53.9927Z" fill="white"/>
<path d="M36.6549 55.382C36.6549 55.5265 36.5348 55.6648 36.3542 55.6648C36.2579 55.6648 36.1617 55.6168 36.1074 55.5386L33.8331 52.429V55.4183C33.8331 55.5566 33.7249 55.6648 33.5804 55.6648C33.4422 55.6648 33.334 55.5566 33.334 55.4183V51.8816C33.334 51.7193 33.4663 51.5809 33.6527 51.5809C33.7549 51.5809 33.8513 51.6231 33.9174 51.7133L36.1556 54.7507V51.8214C36.1556 51.683 36.264 51.5809 36.4144 51.5809C36.5526 51.5809 36.6549 51.683 36.6549 51.8214V55.382Z" fill="white"/>
<path d="M39.9203 54.2935L39.072 52.1342L38.2174 54.2935H39.9203ZM40.6121 55.6648C40.5098 55.6648 40.4135 55.6046 40.3713 55.5023L40.0706 54.7386H38.0729L37.7722 55.5023C37.7301 55.6046 37.634 55.6648 37.5317 55.6648C37.3692 55.6648 37.2607 55.5386 37.2607 55.4002C37.2607 55.3702 37.2668 55.334 37.279 55.304L38.6626 51.8516C38.7287 51.6891 38.8854 51.5809 39.072 51.5809C39.2463 51.5809 39.4027 51.6891 39.4688 51.8516L40.8648 55.304C40.877 55.334 40.8828 55.3702 40.8828 55.4002C40.8828 55.5206 40.7746 55.6648 40.6121 55.6648Z" fill="white"/>
<path d="M43.5046 52.0621H42.4095V55.4183C42.4095 55.5566 42.3013 55.6648 42.1568 55.6648C42.0186 55.6648 41.9104 55.5566 41.9104 55.4183V52.0621H40.8212C40.701 52.0621 40.6047 51.972 40.6047 51.8336C40.6047 51.7133 40.701 51.617 40.8212 51.617H43.5046C43.6252 51.617 43.7212 51.7071 43.7212 51.8455C43.7212 51.9658 43.6252 52.0621 43.5046 52.0621Z" fill="white"/>
<path d="M44.8145 55.4183C44.8145 55.5566 44.7063 55.6648 44.5618 55.6648C44.4234 55.6648 44.3152 55.5566 44.3152 55.4183V51.8214C44.3152 51.683 44.4234 51.5809 44.574 51.5809C44.7122 51.5809 44.8145 51.683 44.8145 51.8214V55.4183Z" fill="white"/>
<path d="M47.4606 51.996C46.558 51.996 45.9866 52.6878 45.9866 53.6261C45.9866 54.5584 46.558 55.2559 47.4606 55.2559C48.3511 55.2559 48.9347 54.5584 48.9347 53.6261C48.9347 52.6878 48.3511 51.996 47.4606 51.996ZM47.4606 55.7009C46.2754 55.7009 45.4692 54.8108 45.4692 53.6261C45.4692 52.441 46.2754 51.5509 47.4606 51.5509C48.6459 51.5509 49.4522 52.441 49.4522 53.6261C49.4522 54.8108 48.6459 55.7009 47.4606 55.7009Z" fill="white"/>
<path d="M53.4635 55.382C53.4635 55.5265 53.3434 55.6648 53.1628 55.6648C53.0665 55.6648 52.9703 55.6168 52.916 55.5386L50.6417 52.429V55.4183C50.6417 55.5566 50.5335 55.6648 50.389 55.6648C50.2508 55.6648 50.1426 55.5566 50.1426 55.4183V51.8816C50.1426 51.7193 50.2749 51.5809 50.4613 51.5809C50.5635 51.5809 50.6599 51.6231 50.726 51.7133L52.9642 54.7507V51.8214C52.9642 51.683 53.0726 51.5809 53.223 51.5809C53.3612 51.5809 53.4635 51.683 53.4635 51.8214V55.382Z" fill="white"/>
<path d="M56.7289 54.2935L55.8804 52.1342L55.026 54.2935H56.7289ZM57.4207 55.6648C57.3184 55.6648 57.2221 55.6046 57.1799 55.5023L56.8792 54.7386H54.8815L54.5808 55.5023C54.5387 55.6046 54.4426 55.6648 54.3403 55.6648C54.1778 55.6648 54.0693 55.5386 54.0693 55.4002C54.0693 55.3702 54.0754 55.334 54.0876 55.304L55.4712 51.8516C55.5375 51.6891 55.6939 51.5809 55.8804 51.5809C56.0549 51.5809 56.2113 51.6891 56.2774 51.8516L57.6734 55.304C57.6855 55.334 57.6914 55.3702 57.6914 55.4002C57.6914 55.5206 57.5832 55.6648 57.4207 55.6648Z" fill="white"/>
<path d="M60.4815 55.6289H58.6585C58.4599 55.6289 58.2976 55.4664 58.2976 55.2681V51.8216C58.2976 51.6832 58.4058 51.5811 58.5562 51.5811C58.6946 51.5811 58.7967 51.6832 58.7967 51.8216V55.1838H60.4815C60.6017 55.1838 60.6981 55.28 60.6981 55.4003C60.6981 55.5387 60.6017 55.6289 60.4815 55.6289Z" fill="white"/>
</g>
<defs>
<clipPath id="clip0_111_50">
<rect width="61" height="56" fill="white"/>
</clipPath>
</defs>
</svg>
