<svg width="73" height="57" viewBox="0 0 73 57" fill="none" xmlns="http://www.w3.org/2000/svg">
<path fill-rule="evenodd" clip-rule="evenodd" d="M57.2959 22.0789V27.6347H61.3365V34.1995H69.4159V27.6347H72.9515V22.0789H57.2959Z" fill="white"/>
<path fill-rule="evenodd" clip-rule="evenodd" d="M65.5898 17.8281V7.10331C38.3462 -8.21674 0 2.40518 0 27.8378C0 56.1974 38.3449 63.2789 65.5898 49.4893V38.2552C55.4992 41.8293 38.3449 40.8082 38.3449 28.041C38.3449 15.2739 53.3179 13.4899 65.5898 17.8281ZM21.6216 32.1172C20.6115 32.1172 20.1064 32.1172 19.0963 31.6121V25.7544C19.3264 25.8769 19.6013 26.0569 21.6216 26.0569C23.6413 26.0569 26.1667 24.5422 26.1667 21.5118C26.1667 18.4813 23.7295 16.9667 21.6216 16.9667C19.5438 16.9667 17.0759 18.9864 17.0759 21.5118L16.9639 44.7569C14.3265 44.6553 11.5844 43.0899 11.0872 40.2406L11.0793 20.7459C11.113 15.5978 15.7505 10.907 21.397 10.907C27.0838 10.907 32.2258 15.4521 32.2258 21.6201C32.2265 27.7876 26.6718 32.1172 21.6216 32.1172Z" fill="white"/>
</svg>
