<svg width="60" height="56" viewBox="0 0 60 56" fill="none" xmlns="http://www.w3.org/2000/svg">
<g clip-path="url(#clip0_112_71)">
<path d="M60 0H0V56H60V0Z" fill="white"/>
<path d="M0 28V56H30H60V28V0H30H0V28ZM31.1177 6.46035C32.5504 6.51187 34.2574 6.79522 35.7815 7.23827C40.4657 8.59834 44.4793 11.5503 47.3649 15.7439C47.5224 15.9757 47.6545 16.1921 47.6545 16.223C47.6545 16.2642 47.4259 16.2797 46.9229 16.2797H46.1914L45.9577 15.9448C45.3124 15.0381 44.0525 13.6162 43.2244 12.8692L42.8688 12.5498L42 12.7713C40.4454 13.1577 38.7333 13.4719 37.0263 13.6832C36.6401 13.7347 36.3252 13.7914 36.3252 13.8068C36.3252 13.8274 36.3963 14.0747 36.4826 14.3529C36.6808 15.0175 36.9856 16.1303 36.9856 16.2127C36.9856 16.2642 36.8281 16.2797 36.3506 16.2797H35.7206L35.6342 15.9809C35.5936 15.8212 35.5072 15.5224 35.4564 15.3266C35.2938 14.7599 35.0449 13.9923 35.0042 13.9459C34.9839 13.9201 34.6486 13.9253 34.2625 13.9562C33.8815 13.9871 32.7993 14.0386 31.8645 14.0747C30.0711 14.1365 27.5461 14.0799 25.8594 13.9356C25.4276 13.8995 25.0567 13.8841 25.0364 13.9047C24.9958 13.9459 24.63 15.1051 24.4572 15.7593L24.3201 16.2797H23.6952C23.1211 16.2797 23.0652 16.2694 23.0652 16.1869C23.0652 16.0736 23.3548 14.9814 23.5732 14.2756C23.6596 14.0077 23.7104 13.7707 23.685 13.7501C23.6647 13.7347 23.4107 13.6883 23.116 13.6574C21.729 13.4977 19.7172 13.1216 18.1778 12.7404L17.2278 12.5034L16.9585 12.7352C16.1406 13.4462 14.8247 14.9093 14.149 15.8521L13.8442 16.2797H13.0974C12.6808 16.2797 12.3455 16.2642 12.3455 16.2488C12.3455 16.1818 13.1583 15.0381 13.6156 14.4508C15.5665 11.9728 17.9543 10.0254 20.779 8.60865C22.9331 7.52677 25.0364 6.8931 27.5106 6.56854C28.1355 6.48611 29.7917 6.39853 30.1778 6.42429C30.2743 6.42944 30.7011 6.45005 31.1177 6.46035ZM28.7299 18.2425C29.5224 18.3404 29.9695 18.361 32.0982 18.3765L34.547 18.3971V21.179V23.9558H32.3624H30.1829L30.1677 23.3531L30.1524 22.7452L29.8476 22.6215C28.9738 22.2712 27.8002 22.0806 26.4945 22.0754C25.2091 22.0754 24.63 22.1888 24.0762 22.5649C23.5072 22.9409 23.4259 23.7086 23.8984 24.1825C24.3912 24.6874 24.9958 24.8471 27.6884 25.1871C30.0152 25.4859 30.9145 25.6765 32.0423 26.1247C32.5859 26.3411 33.2718 26.7481 33.6986 27.1139C34.3285 27.6445 34.8467 28.5203 35.0855 29.4477C35.2633 30.138 35.3141 31.4672 35.1871 32.173C34.9687 33.3785 34.5216 34.244 33.7036 35.0322C32.8196 35.8874 31.6816 36.4489 30.1118 36.8044C28.3793 37.2011 25.9255 37.2629 23.4666 36.9796C22.6232 36.8868 22.1355 36.8662 20.1084 36.8508L17.7307 36.8302V34.074V31.3229H19.9153H22.0999V31.8896V32.4563L22.2981 32.5593C22.9433 32.8891 24.2693 33.1312 25.6664 33.1621C28.0745 33.2239 29.1566 32.7912 29.1617 31.7608C29.1617 31.359 29.05 31.1426 28.7147 30.9056C28.2269 30.5553 27.5411 30.3956 25.3514 30.1122C22.7197 29.7671 21.6782 29.5249 20.5351 28.9788C18.7113 28.103 17.812 26.7687 17.6291 24.6668C17.5275 23.554 17.7053 22.5133 18.1372 21.6066C19.1075 19.5717 21.3277 18.4022 24.7671 18.1137C25.4581 18.057 27.8459 18.1343 28.7299 18.2425ZM47.9594 18.2116C50.2252 18.5568 52.0288 19.4223 53.4259 20.8339C55.1279 22.5597 55.9509 24.775 55.9458 27.6136C55.9458 28.9737 55.7985 29.9937 55.4479 31.0653C54.254 34.7025 51.16 36.8765 46.8061 37.1393C44.525 37.2732 42.2032 36.8147 40.5419 35.8977C39.4191 35.2795 38.2252 34.1925 37.58 33.2033C36.7976 31.9978 36.315 30.6171 36.1219 29.0046C36.0457 28.3606 36.061 26.7327 36.1473 26.0578C36.5639 22.8637 38.2506 20.4423 40.9636 19.1389C42.0965 18.598 43.3209 18.2734 44.8349 18.1137C45.3429 18.0622 47.4005 18.124 47.9594 18.2116ZM16.4098 20.736V23.0285H14.9365H13.4632V27.6651V32.3017H14.9365H16.4098V34.5943V36.8868L10.5572 36.8765L4.69941 36.8611L4.68417 34.5788L4.67401 32.3017H6.14733H7.62066V27.6651V23.0285L6.16257 23.0182L4.69941 23.0028L4.68417 20.7205L4.67401 18.4434H10.5419H16.4098V20.736ZM14.022 39.2927C14.6672 40.2201 16.0796 41.812 16.8772 42.5126L17.1668 42.765L17.9949 42.559C19.5851 42.1623 21.16 41.8686 22.7858 41.6677C23.2887 41.6059 23.7053 41.5492 23.7155 41.5441C23.7257 41.5389 23.6596 41.3071 23.5732 41.0237C23.3649 40.3592 23.0652 39.2567 23.0652 39.1433C23.0652 39.0609 23.1262 39.0506 23.6952 39.0506H24.3201L24.4572 39.5503C24.5334 39.8285 24.6909 40.3643 24.8027 40.7455L25.0161 41.4307L25.3006 41.3998C26.9416 41.2298 31.2193 41.1834 33.2261 41.3174C33.8561 41.3586 34.5165 41.3947 34.6943 41.3947H35.0246L35.1973 40.8537C35.2938 40.5549 35.4462 40.0346 35.5377 39.6946L35.7053 39.0764L36.3455 39.0609C36.7722 39.0506 36.9856 39.0661 36.9856 39.1021C36.9856 39.1897 36.5436 40.7971 36.4064 41.1989L36.2794 41.5698L36.442 41.5956C36.5334 41.611 36.8891 41.6626 37.2396 41.7038C38.7282 41.8944 40.5775 42.2499 41.9797 42.6105C42.7062 42.8011 42.7926 42.8114 42.8942 42.7444C43.138 42.5796 44.2354 41.4719 44.7638 40.8692C45.0686 40.5137 45.5157 39.9625 45.7544 39.6379L46.1964 39.0506H46.9229C47.3243 39.0506 47.6545 39.0712 47.6545 39.0918C47.6545 39.1588 46.9839 40.1376 46.5927 40.6477C43.0872 45.2276 37.9102 48.1538 32.1846 48.7978C31.2396 48.9008 28.5064 48.8854 27.6122 48.772C22.9636 48.1641 19.0466 46.3095 15.6478 43.1051C14.4793 42.0026 13.0161 40.2201 12.376 39.1124C12.3455 39.0661 12.503 39.0506 13.0974 39.0506H13.8544L14.022 39.2927Z" fill="#0C5D90"/>
<path d="M29.3091 7.74314C28.1355 8.15013 27.0178 9.43808 25.9916 11.5658C25.7579 12.0449 25.5546 12.4828 25.5394 12.5292C25.514 12.6013 25.5546 12.6219 25.7731 12.6477C27.033 12.7867 30.3353 12.8589 32.1338 12.7816C34.293 12.6889 34.4962 12.6734 34.4962 12.5755C34.4962 12.4467 33.7341 10.896 33.409 10.3706C32.7485 9.28868 32.0932 8.53652 31.4225 8.08831C30.7164 7.62465 30 7.50616 29.3091 7.74314Z" fill="#0C5D90"/>
<path d="M26.469 7.94402C23.7459 8.52617 21.5206 9.45864 19.1938 11.0042C18.6248 11.3803 18.4419 11.54 18.5841 11.54C18.6045 11.54 18.9296 11.6121 19.3056 11.6945C20.535 11.9779 23.1007 12.4055 23.9948 12.4776L24.1879 12.4931L24.4012 11.9779C25.0211 10.5096 25.9863 8.9074 26.7687 8.07281C26.9415 7.88735 26.9415 7.8822 26.8246 7.88735C26.7535 7.8925 26.596 7.91311 26.469 7.94402Z" fill="#0C5D90"/>
<path d="M33.3024 8.09853C33.6529 8.51067 34.2321 9.31951 34.5267 9.79862C34.8875 10.3911 35.4311 11.473 35.6648 12.0757L35.8426 12.5239L36.1728 12.493C37.7731 12.3333 41.5581 11.6584 41.5581 11.5296C41.5581 11.5039 41.2329 11.2669 40.8367 11.0041C38.6724 9.55649 36.2744 8.52613 33.8917 8.0161C33.0737 7.84094 33.0788 7.84094 33.3024 8.09853Z" fill="#0C5D90"/>
<path d="M45.3225 22.4669C43.6307 22.7296 42.6451 23.9506 42.3403 26.1556C42.2234 27.0159 42.2641 28.8654 42.4165 29.5867C42.8991 31.8432 44.1438 32.8993 46.2014 32.8014C47.2734 32.7499 47.8576 32.5129 48.4927 31.8638C49.3767 30.9725 49.7323 29.7412 49.7374 27.6135C49.7374 25.8671 49.4885 24.7595 48.889 23.8424C48.4724 23.1985 47.7967 22.7245 47.0448 22.539C46.6231 22.4411 45.7442 22.3999 45.3225 22.4669Z" fill="#0C5D90"/>
<path d="M27.8409 42.5332C26.4692 42.6105 25.5293 42.6672 25.5141 42.6826C25.4734 42.7238 26.1135 44.0582 26.4489 44.6455C27.1703 45.9025 27.8815 46.7474 28.6131 47.2317C29.0907 47.5459 29.3803 47.649 29.8527 47.6902C30.3151 47.7262 30.6504 47.649 31.1686 47.3811C31.7528 47.0771 32.5962 46.2168 33.1703 45.3358C33.5513 44.7537 34.4963 42.9248 34.4963 42.7702C34.4963 42.6878 34.3896 42.6723 33.404 42.6054C32.5708 42.5487 28.5115 42.4972 27.8409 42.5332Z" fill="#0C5D90"/>
<path d="M23.6493 42.8475C23.5681 42.8578 23.0803 42.9247 22.5672 42.9969C21.3479 43.1669 20.3928 43.3317 19.3208 43.5636C18.64 43.713 18.4571 43.7696 18.4978 43.8212C18.5892 43.9345 19.9254 44.8051 20.596 45.1812C22.3335 46.1652 24.2234 46.8916 26.1134 47.2935C26.5046 47.381 26.85 47.448 26.8805 47.448C26.911 47.448 26.8145 47.3038 26.6621 47.1235C25.839 46.1704 25.0617 44.8721 24.4317 43.4039L24.1879 42.8372L23.9948 42.832C23.8881 42.8269 23.7357 42.832 23.6493 42.8475Z" fill="#0C5D90"/>
<path d="M35.7207 43.136C35.5327 43.6202 34.9027 44.8876 34.5725 45.4388C34.2169 46.0364 33.785 46.6443 33.4091 47.0822C33.2516 47.2677 33.1347 47.4223 33.1449 47.4377C33.2008 47.4944 34.9281 47.0719 35.8528 46.7731C37.5141 46.2373 39.6072 45.1864 41.1212 44.1303L41.5683 43.816L41.299 43.7542C39.9375 43.4348 38.3066 43.136 37.0111 42.966C36.564 42.9093 36.117 42.8526 36.0204 42.8372L35.7207 43.136Z" fill="#0C5D90"/>
</g>
<defs>
<clipPath id="clip0_112_71">
<rect width="60" height="56" fill="white"/>
</clipPath>
</defs>
</svg>
