<svg width="1125" height="114" viewBox="0 0 1125 114" fill="none" xmlns="http://www.w3.org/2000/svg">
<g clip-path="url(#clip0_130_2256)">
<path d="M1122.56 47.44C1121.97 47.37 1119.53 47.62 1118.91 46.84C1118.58 46.41 1119.74 45.72 1120.74 45.09C1121.6 44.56 1122.35 44.13 1122.02 43.94C1121.3 43.57 1118.27 44.63 1116.72 44.72C1114.38 44.85 1111.13 43.75 1107.54 41.36C1103.97 38.96 1099.14 33.98 1091.38 36.88C1088.63 37.91 1088.38 39.28 1087.49 37.13C1082.57 25.22 1066.31 11.03 1026.12 11.03L981.16 11L979.21 16.59H980.52C1003.14 16.59 1044.64 16.38 1052.14 19.71C1060.38 23.37 1062.58 25.59 1059.62 32.03C1057.37 36.92 1053.55 30.82 1048.33 30.81C1048.33 30.81 1045.42 29.91 1040.17 32.16C1037.28 33.4 1035.8 32.32 1034.18 31.25C1032.84 30.37 1031.42 29.47 1029.04 29.87C1023.76 30.75 1031.07 31.41 1032 32.82C1032.93 34.25 1027.62 33.75 1024.82 34.71C1022.02 35.67 1023.91 36.93 1026.86 36.93C1029.81 36.93 1031.25 38.97 1027.29 40.02C1023.31 41.07 1026.02 41.91 1029.11 41.48C1032.19 41.07 1032.96 41.54 1032.88 44.7C1032.82 47.86 1035.32 45.67 1035.76 43.54C1036.18 41.4 1038.2 45.21 1039.86 45.7C1041.52 46.22 1039.23 42.56 1039.42 41.26C1039.59 39.94 1045.83 38.9 1047.86 40.44C1049.89 41.98 1054.37 43.7 1052.37 47.56C1051.58 49.08 1052.73 50.27 1044.32 55.41C1035.91 60.55 1029.08 55.51 1023.26 53.7C1017.44 51.91 1008.03 53.01 1004.1 55.3C1002.02 56.51 1000.52 58.45 998.67 59.89L1049.39 59.87C1049.39 59.87 1076.13 61.27 1076.13 38.45C1076.13 27.68 1067.29 21.08 1067.29 21.08C1067.29 21.08 1080.57 27.23 1080.57 40.25C1080.57 53.27 1072.35 65.48 1048.81 65.48H986.96C984.55 66.75 981.99 69.49 981.13 71.81C981.13 71.81 979.38 78.83 983.42 82.58C992.64 91.13 1008.01 90.63 1019.5 90.3C1030.97 89.99 1043.23 81.36 1058.92 84.41C1072.79 87.1 1084.49 92.99 1087.54 97.56C1089.35 100.29 1085.31 102.75 1082.33 104.53C1080.28 105.77 1078.74 106.68 1079.97 107.11C1082.98 108.21 1086.67 105.18 1088.57 105.55C1090.49 105.93 1084.97 114.65 1087.76 114.12C1090.54 113.58 1094.16 107.2 1095.89 105.91C1097.93 104.37 1103.82 111.41 1106.29 110.51C1107.48 110.09 1106.43 107.89 1105.28 105.75C1104.04 103.45 1102.69 101.21 1103.89 101.34C1106.22 101.61 1112.33 101.64 1112.78 100.83C1113.24 100.03 1107.33 97.01 1105.39 96.53C1104.15 96.22 1106.5 95.62 1108.92 94.99C1111.28 94.37 1113.69 93.7 1112.95 93.21C1112.1 92.66 1108.19 92.25 1105.87 92.45C1101.88 92.77 1098.49 93.38 1096.54 88.4C1095.26 85.13 1094.22 83.35 1093.26 82.53C1090.11 79.89 1084.87 78.73 1086.23 76.25C1088.12 72.82 1092.84 63.99 1091.45 52.1C1090.59 46.97 1101.58 47.49 1101.58 47.49C1101.58 47.49 1105.48 46.85 1109.01 51.12C1109.84 52.12 1106.49 54.81 1106.02 57.2C1105.75 58.56 1107.06 57.55 1108.5 56.42C1109.6 55.57 1110.78 54.67 1111.43 54.71C1112.5 55.2 1112.46 58.5 1114.13 59.04C1115.39 57.68 1114.42 53.05 1115.97 53.96C1116.77 54.25 1120.7 56.6 1121.65 55.54C1121.92 54.95 1120.05 51.71 1119.02 50.58C1118.54 50.07 1121.48 49.13 1122.74 49.05C1126.47 48.85 1124.58 47.64 1122.56 47.41" fill="white"/>
<path d="M265.06 26.12C266.3 16.04 259.93 11 245.96 11H178.64C162.05 11 151.42 18.07 146.75 32.19L145.47 36H194.46H225.63C226.98 36 227.59 36.51 227.46 37.55L227.4 38.03L216.34 70.89C215.77 72.32 214.73 73.03 213.22 73.03H169.71C168.36 73.03 167.75 72.55 167.86 71.6C167.9 71.28 167.97 71.05 168.07 70.89L177.93 41.59H143.59L131.74 76.84C131 78.98 130.52 80.97 130.29 82.79C129.04 92.95 135.44 98.03 149.49 98.03H216.82C233.33 98.03 243.91 90.97 248.59 76.84L263.6 32.2C264.34 30.06 264.83 28.03 265.06 26.13" fill="white"/>
<path d="M585.44 11H551.15L542.78 36H577.07L585.44 11Z" fill="white"/>
<path d="M540.91 41.58L522.01 98.02H556.3L575.2 41.58H540.91Z" fill="white"/>
<path d="M706.74 27.07C706.97 26.2 707.13 25.33 707.24 24.45C708.34 15.49 702.58 11 689.96 11H622.22C614.76 11 608.63 12.57 603.84 15.7C599.05 18.84 595.6 23.54 593.48 29.81L591.41 36H636.27H667.24C668.59 36 669.2 36.51 669.07 37.55L669.01 38.03L664.32 51.96H620.39L623.88 41.59H589.54L570.69 98.03H604.98L613.29 73.03H657.22L648.91 98.03H683.2L705.98 29.82C706.25 28.87 706.51 27.95 706.73 27.08" fill="white"/>
<path d="M697.25 98.02H727.49L746.38 41.58H716.14L697.25 98.02Z" fill="white"/>
<path d="M775.42 17.91C774.36 15.53 772.67 13.78 770.35 12.67C768.02 11.56 765.23 11 761.98 11H744.84C732.54 11 724.45 16.79 720.56 28.38L718.01 36H783.2L775.41 17.91H775.42Z" fill="white"/>
<path d="M815.43 11L796.62 67.19L785.6 41.58H746.37L767.49 91.12C768.55 93.5 770.22 95.25 772.5 96.36C774.78 97.47 777.6 98.03 780.93 98.03H798.07C810.29 98.03 818.34 92.24 822.23 80.65L845.55 11H815.43Z" fill="white"/>
<path d="M862.85 98.02H897.13L915.98 41.58H881.69L862.85 98.02Z" fill="white"/>
<path d="M851.39 11L842.96 36H847.5H936.1H958.44L966.86 11H851.39Z" fill="white"/>
<path d="M398.62 26.12C399.86 16.04 393.49 11 379.52 11H277.58L269.2 36H359.67C361.02 36 361.63 36.52 361.5 37.55C361.49 37.63 361.46 37.71 361.41 37.79C361.36 37.87 361.32 37.99 361.3 38.15L358.67 46.01C358.26 47.44 357.21 48.15 355.55 48.15H314.36L316.58 41.59H282.37L263.47 98.03H297.76L307.53 68.86H327.05L341.45 98.03H379.43L379.81 96.84L365.3 68.63C372.21 67.92 377.84 65.83 382.2 62.38C386.55 58.93 389.79 54.03 391.92 47.68L397.15 32.2C397.89 30.06 398.38 28.03 398.61 26.13" fill="white"/>
<path d="M531.68 26.12C532.91 16.04 526.55 11 512.58 11H411.72L403.33 36H458.02H492.24C493.59 36 494.2 36.51 494.07 37.55L494.01 38.03L482.95 70.89C482.38 72.32 481.34 73.03 479.83 73.03H438.4L448.93 41.59H414.7L395.8 98.03H483.42C499.93 98.03 510.52 90.97 515.19 76.84L530.2 32.2C530.94 30.06 531.43 28.03 531.66 26.13" fill="white"/>
<path d="M87.9 73.02H42.11C40.76 73.02 40.15 72.54 40.26 71.59C40.3 71.27 40.37 71.04 40.47 70.88L50.33 41.58H15.98L3.37001 79.21C3.09001 80.16 2.85001 81.06 2.63001 81.89C2.41001 82.72 2.24001 83.58 2.13001 84.45C1.02001 93.5 6.81001 98.02 19.51 98.02H94.59C106.05 98.02 116.23 90.71 119.89 79.85L125.76 62.44H91.47L87.9 73.03V73.02Z" fill="white"/>
<path d="M95.23 36H100.18L96.61 46.59H130.9L134.47 36L135.97 31.56C135.99 31.51 135.99 31.46 136.01 31.41L136.14 31.02C139.45 21.19 132.14 11 121.76 11H48.65C33.65 11 24.07 17.27 19.91 29.81L17.84 36H95.23Z" fill="white"/>
</g>
<defs>
<clipPath id="clip0_130_2256">
<rect width="1125" height="114" fill="white"/>
</clipPath>
</defs>
</svg>
